<svg width="74" height="74" viewBox="0 0 74 74" fill="none" xmlns="http://www.w3.org/2000/svg">
<path d="M36.8357 2C33.1605 1.99982 29.5678 3.08947 26.5119 5.13116C23.456 7.17285 21.0742 10.0749 19.6677 13.4703C18.2611 16.8656 17.893 20.6018 18.6099 24.2064C19.3268 27.811 21.0964 31.1221 23.6951 33.7209C26.2938 36.3197 29.6048 38.0896 33.2093 38.8066C36.8139 39.5237 40.5501 39.1557 43.9456 37.7494C47.341 36.343 50.2431 33.9613 52.285 30.9055C54.3268 27.8497 55.4167 24.257 55.4167 20.5819C55.4167 15.6538 53.4591 10.9276 49.9745 7.44283C46.4899 3.95808 41.7638 2.00025 36.8357 2ZM35.3808 19.2662H38.2376C39.5179 19.265 40.7462 19.7724 41.6523 20.6769C42.5585 21.5813 43.0682 22.8087 43.0694 24.089C43.0706 25.3693 42.5632 26.5976 41.6587 27.5038C40.7543 28.4099 39.5269 28.9197 38.2466 28.9209V31.2991C38.2516 31.5073 38.215 31.7143 38.1389 31.9081C38.0627 32.1018 37.9486 32.2784 37.8032 32.4274C37.6578 32.5764 37.4841 32.6948 37.2922 32.7756C37.1004 32.8564 36.8943 32.8981 36.6861 32.8981C36.4779 32.8981 36.2718 32.8564 36.08 32.7756C35.8881 32.6948 35.7144 32.5764 35.569 32.4274C35.4236 32.2784 35.3095 32.1018 35.2333 31.9081C35.1572 31.7143 35.1206 31.5073 35.1256 31.2991V28.9214H31.8692C31.4552 28.9214 31.0582 28.757 30.7654 28.4642C30.4727 28.1715 30.3082 27.7745 30.3082 27.3605C30.3082 26.9465 30.4727 26.5495 30.7654 26.2567C31.0582 25.964 31.4552 25.7996 31.8692 25.7996H38.2376C38.4632 25.8022 38.6871 25.76 38.8963 25.6755C39.1056 25.591 39.2959 25.4657 39.4564 25.3071C39.6169 25.1485 39.7443 24.9596 39.8313 24.7514C39.9182 24.5431 39.963 24.3197 39.963 24.0941C39.963 23.8684 39.9182 23.645 39.8313 23.4368C39.7443 23.2286 39.6169 23.0397 39.4564 22.8811C39.2959 22.7224 39.1056 22.5972 38.8963 22.5127C38.6871 22.4282 38.4632 22.386 38.2376 22.3886H35.3808C34.0582 22.3915 32.787 21.8768 31.839 20.9544C30.891 20.0321 30.3416 18.7755 30.3083 17.4533C30.2749 16.1311 30.7603 14.8483 31.6606 13.8794C32.5609 12.9105 33.8046 12.3323 35.1256 12.2685V9.86481C35.1206 9.65669 35.1572 9.44966 35.2333 9.2559C35.3095 9.06214 35.4236 8.88557 35.569 8.73658C35.7144 8.58759 35.8881 8.4692 36.08 8.38836C36.2718 8.30752 36.4779 8.26588 36.6861 8.26588C36.8943 8.26588 37.1004 8.30752 37.2922 8.38836C37.4841 8.4692 37.6578 8.58759 37.8032 8.73658C37.9486 8.88557 38.0627 9.06214 38.1389 9.2559C38.215 9.44966 38.2516 9.65669 38.2466 9.86481V12.2422H41.8023C42.2163 12.2422 42.6133 12.4066 42.906 12.6994C43.1988 12.9921 43.3632 13.3891 43.3632 13.8031C43.3632 14.2171 43.1988 14.6141 42.906 14.9069C42.6133 15.1996 42.2163 15.3641 41.8023 15.3641H35.3808C34.8634 15.3641 34.3672 15.5696 34.0013 15.9355C33.6354 16.3013 33.4299 16.7976 33.4299 17.315C33.4299 17.8324 33.6354 18.3286 34.0013 18.6945C34.3672 19.0604 34.8634 19.2659 35.3808 19.2659V19.2662Z" fill="#9B59B6"/>
<path d="M16.789 43.0355H9.20655C9.04805 43.0355 8.8911 43.0667 8.74467 43.1274C8.59824 43.1881 8.4652 43.277 8.35315 43.3891C8.2411 43.5012 8.15224 43.6343 8.09165 43.7807C8.03105 43.9272 7.99991 44.0841 8 44.2426V70.1208C8.00003 70.4408 8.12716 70.7476 8.35343 70.9739C8.5797 71.2001 8.88657 71.3272 9.20655 71.3272H16.789C17.4864 71.3271 18.1552 71.05 18.6483 70.5568C19.1414 70.0636 19.4184 69.3947 19.4184 68.6973V45.6648C19.4183 44.9675 19.1412 44.2988 18.6481 43.8058C18.155 43.3127 17.4863 43.0356 16.789 43.0355Z" fill="#9B59B6"/>
<path d="M64.452 46.0744C64.0511 45.4641 63.5046 44.9631 62.8617 44.6168C62.2189 44.2704 61.5 44.0896 60.7698 44.0905H57.7982C56.5232 44.0878 55.2763 44.4651 54.2167 45.1741C53.157 45.8831 52.3326 46.8918 51.8487 48.0713C51.5614 48.757 51.1611 49.3897 50.6645 49.943C49.8205 51.2389 48.6786 52.3139 47.3341 53.0781C45.9897 53.8424 44.4818 54.2736 42.9366 54.3358L34.1348 54.3364C33.7209 54.3364 33.3238 54.1719 33.0311 53.8792C32.7384 53.5865 32.5739 53.1894 32.5739 52.7754C32.5739 52.3614 32.7384 51.9644 33.0311 51.6717C33.3238 51.379 33.7209 51.2145 34.1348 51.2145H42.8948C44.0203 51.1856 45.1138 50.8338 46.0449 50.2009V50.1481C46.048 49.3537 45.8942 48.5666 45.5924 47.8318C45.2905 47.0971 44.8466 46.4291 44.286 45.8663C43.7254 45.3035 43.0593 44.857 42.3257 44.5522C41.5921 44.2475 40.8056 44.0906 40.0113 44.0905H33.5524C32.3723 44.0871 31.203 44.3172 30.1122 44.7677C29.0214 45.2182 28.0304 45.88 27.1965 46.7152L27.0317 46.8795C25.8096 48.0997 24.2404 48.9125 22.5387 49.2067V66.4482H46.0931C49.5855 66.4504 53.0018 65.4276 55.9183 63.5065C58.8349 61.5854 61.1234 58.8506 62.5003 55.6411L64.8207 50.2404C65.11 49.57 65.2278 48.838 65.1635 48.1107C65.0991 47.3834 64.8546 46.6835 64.452 46.0744Z" fill="#9B59B6"/>
</svg>
