<svg width="74" height="74" viewBox="0 0 74 74" fill="none" xmlns="http://www.w3.org/2000/svg">
<g clip-path="url(#clip0)">
<path d="M66.3919 14.5456L52.5169 0.670603C52.3008 0.456277 52.0445 0.286712 51.7628 0.171632C51.481 0.056551 51.1793 -0.00178195 50.875 -2.23834e-05H13.875C12.0351 -2.23834e-05 10.2705 0.730891 8.96945 2.03192C7.66841 3.33296 6.9375 5.09754 6.9375 6.93748V67.0625C6.9375 68.9024 7.66841 70.667 8.96945 71.968C10.2705 73.2691 12.0351 74 13.875 74H60.125C61.9649 74 63.7295 73.2691 65.0306 71.968C66.3316 70.667 67.0625 68.9024 67.0625 67.0625V16.1875C67.0643 15.8831 67.0059 15.5814 66.8908 15.2997C66.7758 15.0179 66.6062 14.7617 66.3919 14.5456ZM62.4375 67.0625C62.4375 67.6758 62.1939 68.264 61.7602 68.6977C61.3265 69.1313 60.7383 69.375 60.125 69.375H13.875C13.2617 69.375 12.6735 69.1313 12.2398 68.6977C11.8061 68.264 11.5625 67.6758 11.5625 67.0625V6.93748C11.5625 6.32416 11.8061 5.73597 12.2398 5.30229C12.6735 4.86861 13.2617 4.62498 13.875 4.62498H48.5625V13.875C48.5625 15.1016 49.0498 16.278 49.9171 17.1453C50.7845 18.0127 51.9609 18.5 53.1875 18.5H62.4375V67.0625Z" fill="#E67E22"/>
<path d="M25.4375 25.4375C24.0654 25.4375 22.7241 25.8444 21.5832 26.6067C20.4424 27.369 19.5532 28.4525 19.0281 29.7201C18.503 30.9878 18.3656 32.3827 18.6333 33.7284C18.901 35.0742 19.5617 36.3103 20.5319 37.2806C21.5022 38.2508 22.7383 38.9115 24.0841 39.1792C25.4298 39.4469 26.8247 39.3095 28.0924 38.7844C29.36 38.2593 30.4435 37.3701 31.2058 36.2293C31.9681 35.0884 32.375 33.7471 32.375 32.375C32.375 30.5351 31.6441 28.7705 30.3431 27.4694C29.042 26.1684 27.2774 25.4375 25.4375 25.4375ZM25.4375 34.6875C24.9801 34.6875 24.533 34.5519 24.1527 34.2978C23.7725 34.0437 23.4761 33.6825 23.301 33.26C23.126 32.8374 23.0802 32.3724 23.1694 31.9239C23.2587 31.4753 23.4789 31.0632 23.8023 30.7398C24.1257 30.4164 24.5378 30.1962 24.9864 30.1069C25.4349 30.0177 25.8999 30.0635 26.3225 30.2385C26.745 30.4136 27.1062 30.71 27.3603 31.0902C27.6144 31.4705 27.75 31.9176 27.75 32.375C27.75 32.9883 27.5064 33.5765 27.0727 34.0102C26.639 34.4439 26.0508 34.6875 25.4375 34.6875Z" fill="#E67E22"/>
<path d="M25.4375 48.5625C24.0654 48.5625 22.7241 48.9694 21.5832 49.7317C20.4424 50.494 19.5532 51.5775 19.0281 52.8451C18.503 54.1128 18.3656 55.5077 18.6333 56.8534C18.901 58.1992 19.5617 59.4353 20.5319 60.4056C21.5022 61.3758 22.7383 62.0365 24.0841 62.3042C25.4298 62.5719 26.8247 62.4345 28.0924 61.9094C29.36 61.3843 30.4435 60.4951 31.2058 59.3543C31.9681 58.2134 32.375 56.8721 32.375 55.5C32.375 53.6601 31.6441 51.8955 30.3431 50.5944C29.042 49.2934 27.2774 48.5625 25.4375 48.5625ZM25.4375 57.8125C24.9801 57.8125 24.533 57.6769 24.1527 57.4228C23.7725 57.1687 23.4761 56.8075 23.301 56.385C23.126 55.9624 23.0802 55.4974 23.1694 55.0489C23.2587 54.6003 23.4789 54.1882 23.8023 53.8648C24.1257 53.5414 24.5378 53.3212 24.9864 53.2319C25.4349 53.1427 25.8999 53.1885 26.3225 53.3635C26.745 53.5386 27.1062 53.835 27.3603 54.2152C27.6144 54.5955 27.75 55.0426 27.75 55.5C27.75 56.1133 27.5064 56.7015 27.0727 57.1352C26.639 57.5689 26.0508 57.8125 25.4375 57.8125Z" fill="#E67E22"/>
<path d="M55.5 25.4375H37V30.0625H55.5V25.4375Z" fill="#E67E22"/>
<path d="M46.25 34.6875H37V39.3125H46.25V34.6875Z" fill="#E67E22"/>
<path d="M55.5 48.5625H37V53.1875H55.5V48.5625Z" fill="#E67E22"/>
<path d="M46.25 57.8125H37V62.4375H46.25V57.8125Z" fill="#E67E22"/>
</g>
<defs>
<clipPath id="clip0">
<rect width="74" height="74" fill="white"/>
</clipPath>
</defs>
</svg>
