<svg width="74" height="74" viewBox="0 0 74 74" fill="none" xmlns="http://www.w3.org/2000/svg">
<path d="M71.136 22.0188C71.1374 21.9875 71.1539 21.9613 71.1539 21.9298C71.1539 21.827 71.1094 21.7388 71.0953 21.6397C71.0745 21.4909 71.059 21.3463 71.0076 21.2053C70.9597 21.0743 70.8869 20.9638 70.8155 20.8462C70.7455 20.7296 70.6826 20.6145 70.5902 20.512C70.4893 20.4001 70.3682 20.3186 70.2459 20.23C70.1651 20.1713 70.1079 20.0909 70.0171 20.0426L37.9979 3.09353C37.936 3.06104 37.8683 3.06278 37.805 3.0369C37.6716 2.98183 37.5399 2.945 37.3982 2.91755C37.2632 2.89184 37.1343 2.87412 36.9992 2.87465C36.8644 2.87412 36.7358 2.89167 36.6012 2.91738C36.4582 2.94483 36.3253 2.98217 36.191 3.03794C36.129 3.06347 36.0627 3.06174 36.0022 3.09353L3.98299 20.0426C3.89213 20.0909 3.83498 20.1713 3.7542 20.23C3.63191 20.3186 3.51083 20.4001 3.4099 20.512C3.31748 20.6145 3.2546 20.7296 3.18459 20.8462C3.11319 20.9638 3.04041 21.0743 2.99246 21.2053C2.94104 21.3463 2.92558 21.4909 2.90473 21.6397C2.89066 21.7388 2.84619 21.827 2.84619 21.9298C2.84619 21.9613 2.86269 21.9875 2.86408 22.0188C2.86982 22.16 2.91377 22.2948 2.94816 22.4348C2.98308 22.5742 3.00705 22.7133 3.06785 22.8403C3.08123 22.8686 3.0788 22.8997 3.09356 22.9277C3.12066 22.9789 3.17625 22.9984 3.20682 23.0465C3.35813 23.2855 3.54731 23.4834 3.77817 23.6458C3.85513 23.6997 3.92045 23.7545 4.00331 23.7976C4.29984 23.9538 4.62243 24.0645 4.98081 24.0645H69.0193C69.3776 24.0645 69.7002 23.9538 69.9968 23.7976C70.0796 23.7545 70.145 23.6997 70.2219 23.6458C70.4528 23.4834 70.6419 23.2855 70.7933 23.0465C70.8238 22.9984 70.8794 22.9789 70.9065 22.9277C70.9213 22.8997 70.9188 22.8686 70.9322 22.8403C70.993 22.7133 71.017 22.5742 71.0519 22.4348C71.0863 22.2948 71.1303 22.16 71.136 22.0188ZM37 7.39629L60.4237 19.7952H13.5764L37 7.39629Z" fill="#34495E"/>
<path d="M29.3287 55.3861C29.3287 56.5645 30.2849 57.5207 31.4634 57.5207H42.5367C43.7152 57.5207 44.6713 56.5645 44.6713 55.3861C44.6713 54.4737 44.0926 53.7083 43.2871 53.4031V30.4528C44.0926 30.1476 44.6713 29.3822 44.6713 28.4699C44.6713 27.2914 43.7152 26.3353 42.5367 26.3353H31.4634C30.2849 26.3353 29.3287 27.2914 29.3287 28.4699C29.3287 29.3822 29.9074 30.1476 30.7129 30.4528V53.4031C29.9074 53.7083 29.3287 54.4737 29.3287 55.3861ZM34.9821 53.2514V30.6045H39.0179V53.2514H34.9821Z" fill="#34495E"/>
<path d="M10.8733 55.3861C10.8733 56.5645 11.8294 57.5207 13.0079 57.5207H24.0812C25.2597 57.5207 26.2158 56.5645 26.2158 55.3861C26.2158 54.4737 25.6372 53.7083 24.8317 53.4031V30.4528C25.6372 30.1476 26.2158 29.3822 26.2158 28.4699C26.2158 27.2914 25.2597 26.3353 24.0812 26.3353H13.0079C11.8294 26.3353 10.8733 27.2914 10.8733 28.4699C10.8733 29.3822 11.4519 30.1476 12.2575 30.4528V53.4031C11.4519 53.7083 10.8733 54.4737 10.8733 55.3861ZM16.5267 53.2514V30.6045H20.5624V53.2514H16.5267Z" fill="#34495E"/>
<path d="M47.7843 55.3861C47.7843 56.5645 48.7404 57.5207 49.9189 57.5207H60.9922C62.1707 57.5207 63.1268 56.5645 63.1268 55.3861C63.1268 54.4737 62.5482 53.7083 61.7427 53.4031V30.4528C62.5482 30.1476 63.1268 29.3822 63.1268 28.4699C63.1268 27.2914 62.1707 26.3353 60.9922 26.3353H49.9189C48.7404 26.3353 47.7843 27.2914 47.7843 28.4699C47.7843 29.3822 48.3629 30.1476 49.1685 30.4528V53.4031C48.3629 53.7083 47.7843 54.4737 47.7843 55.3861ZM53.4377 53.2514V30.6045H57.4735V53.2514H53.4377Z" fill="#34495E"/>
<path d="M5.64514 62.179C5.64514 63.3575 6.60127 64.3136 7.77976 64.3136H66.2204C67.3989 64.3136 68.355 63.3575 68.355 62.179C68.355 61.0005 67.3989 60.0444 66.2204 60.0444H7.77976C6.60127 60.0444 5.64514 61.0005 5.64514 62.179Z" fill="#34495E"/>
<path d="M68.5273 66.8846H5.47275C4.29426 66.8846 3.33813 67.8407 3.33813 69.0192C3.33813 70.1977 4.29426 71.1538 5.47275 71.1538H68.5273C69.7058 71.1538 70.6619 70.1977 70.6619 69.0192C70.6619 67.8407 69.7058 66.8846 68.5273 66.8846Z" fill="#34495E"/>
</svg>
