<svg width="74" height="74" viewBox="0 0 74 74" fill="none" xmlns="http://www.w3.org/2000/svg">
<path d="M39.2084 26.6524H32.8399C32.3416 26.6524 31.8637 26.8503 31.5113 27.2027C31.159 27.555 30.961 28.033 30.961 28.5313C30.961 29.0296 31.159 29.5075 31.5113 29.8599C31.8637 30.2122 32.3416 30.4102 32.8399 30.4102H35.7791V32.4698C35.7791 32.9681 35.9771 33.446 36.3294 33.7984C36.6818 34.1508 37.1597 34.3487 37.658 34.3487C38.1563 34.3487 38.6343 34.1508 38.9866 33.7984C39.339 33.446 39.5369 32.9681 39.5369 32.4698V30.377C40.8713 30.297 42.1218 29.6996 43.0227 28.712C43.9235 27.7243 44.4035 26.4242 44.3607 25.0881C44.318 23.7521 43.7557 22.4854 42.7936 21.5573C41.8314 20.6293 40.5452 20.1132 39.2084 20.1187H36.3516C35.9209 20.1151 35.509 19.9415 35.2057 19.6356C34.9024 19.3298 34.7322 18.9165 34.7322 18.4857C34.7322 18.055 34.9024 17.6417 35.2057 17.3358C35.509 17.03 35.9209 16.8563 36.3516 16.8527H42.773C43.2714 16.8527 43.7493 16.6547 44.1016 16.3024C44.454 15.95 44.652 15.4721 44.652 14.9738C44.652 14.4755 44.454 13.9976 44.1016 13.6452C43.7493 13.2928 43.2714 13.0949 42.773 13.0949H39.5369V11.0357C39.5369 10.5374 39.339 10.0595 38.9866 9.70712C38.6343 9.35475 38.1563 9.1568 37.658 9.1568C37.1597 9.1568 36.6818 9.35475 36.3294 9.70712C35.9771 10.0595 35.7791 10.5374 35.7791 11.0357V13.1526C34.4083 13.2964 33.1452 13.9612 32.2504 15.0096C31.3557 16.058 30.8978 17.41 30.9713 18.7864C31.0448 20.1627 31.644 21.4583 32.6453 22.4055C33.6465 23.3527 34.9733 23.8792 36.3516 23.8763H39.2084C39.5766 23.8763 39.9296 24.0226 40.1899 24.2829C40.4502 24.5432 40.5965 24.8962 40.5965 25.2643C40.5965 25.6325 40.4502 25.9855 40.1899 26.2458C39.9296 26.5061 39.5766 26.6524 39.2084 26.6524Z" fill="#3498DB"/>
<path d="M62.4518 18.2983C62.1078 17.9379 61.6347 17.7288 61.1366 17.7169C60.6385 17.7049 60.156 17.8911 59.795 18.2346L57.8958 20.0446C57.5791 15.8157 55.9555 11.7898 53.2498 8.52442C50.544 5.25902 46.8899 2.91565 42.7934 1.81877C38.697 0.721893 34.3608 0.925772 30.3854 2.40218C26.4099 3.87859 22.9918 6.55449 20.6044 10.0594C20.3255 10.4709 20.221 10.9761 20.3139 11.4645C20.4068 11.9528 20.6894 12.3845 21.0999 12.6649C21.5104 12.9452 22.0153 13.0515 22.504 12.9604C22.9926 12.8693 23.4253 12.5882 23.7072 12.1788C25.6465 9.33147 28.4191 7.15372 31.6447 5.94407C34.8704 4.73443 38.3912 4.55211 41.7246 5.42211C45.0579 6.29212 48.0406 8.17186 50.2636 10.8036C52.4867 13.4354 53.8413 16.6903 54.1418 20.1222L52.338 18.5266C52.1532 18.363 51.9379 18.2375 51.7046 18.1571C51.4712 18.0767 51.2243 18.0431 50.978 18.0582C50.7316 18.0732 50.4906 18.1366 50.2688 18.2448C50.047 18.353 49.8486 18.5038 49.6851 18.6886C49.3547 19.0619 49.1862 19.5511 49.2166 20.0487C49.2317 20.295 49.2951 20.536 49.4033 20.7578C49.5115 20.9797 49.6623 21.178 49.8471 21.3416L54.8481 25.7661C55.2008 26.0778 55.6576 26.2459 56.1282 26.2372C56.5988 26.2284 57.049 26.0434 57.3898 25.7187L62.3874 20.9549C62.7482 20.6112 62.9577 20.1382 62.9698 19.64C62.9819 19.1418 62.7956 18.6592 62.4518 18.2983Z" fill="#3498DB"/>
<path d="M54.9103 30.2928C54.4862 30.0312 53.9756 29.9486 53.4907 30.0634C53.0058 30.1782 52.5863 30.4808 52.3245 30.9048C50.4837 33.894 47.7477 36.227 44.5052 37.5724C41.2627 38.9177 37.6787 39.2069 34.2625 38.3989C30.8463 37.5908 27.7716 35.7267 25.4753 33.0713C23.1791 30.416 21.7782 27.1045 21.4716 23.6074L23.2753 25.203C23.4602 25.3666 23.6754 25.4921 23.9087 25.5725C24.1421 25.6529 24.389 25.6865 24.6354 25.6714C24.8817 25.6564 25.1227 25.593 25.3445 25.4848C25.5664 25.3766 25.7647 25.2258 25.9283 25.041C26.0918 24.8561 26.2174 24.6409 26.2977 24.4075C26.3781 24.1742 26.4117 23.9273 26.3967 23.6809C26.3816 23.4346 26.3182 23.1936 26.21 22.9718C26.1019 22.7499 25.9511 22.5516 25.7662 22.388L20.7642 17.9629C20.3964 17.6381 19.9164 17.4699 19.4263 17.494C18.9363 17.5182 18.4751 17.7328 18.1411 18.0922L13.7205 22.8559C13.3837 23.2217 13.2055 23.706 13.225 24.2028C13.2445 24.6996 13.4601 25.1685 13.8246 25.5067C14.189 25.8449 14.6727 26.0248 15.1696 26.0072C15.6665 25.9895 16.1361 25.7756 16.4756 25.4124L17.736 24.0531C18.1356 28.3248 19.8681 32.3627 22.6884 35.5957C25.5087 38.8287 29.2741 41.0933 33.4519 42.069C37.6298 43.0448 42.0087 42.6824 45.9693 41.0331C49.9299 39.3838 53.2718 36.531 55.5222 32.8783C55.6518 32.6684 55.7388 32.435 55.7782 32.1914C55.8175 31.9479 55.8086 31.6989 55.7518 31.4588C55.6949 31.2188 55.5914 30.9922 55.447 30.7921C55.3026 30.5921 55.1203 30.4224 54.9103 30.2928Z" fill="#3498DB"/>
<path d="M19.4432 46.7269H12.6855C12.4003 46.7269 12.1268 46.8402 11.9251 47.0419C11.7234 47.2436 11.6101 47.5171 11.6101 47.8023V70.8648C11.6101 71.15 11.7234 71.4235 11.9251 71.6252C12.1268 71.8268 12.4003 71.9401 12.6855 71.9401H19.4432C19.7509 71.9401 20.0557 71.8795 20.34 71.7617C20.6243 71.644 20.8827 71.4713 21.1003 71.2537C21.3179 71.0361 21.4905 70.7777 21.6083 70.4934C21.7261 70.209 21.7867 69.9043 21.7866 69.5965V49.0705C21.7866 48.449 21.5397 47.8529 21.1003 47.4134C20.6608 46.9739 20.0647 46.727 19.4432 46.7269Z" fill="#3498DB"/>
<path d="M62.1515 49.3664C61.7829 48.8047 61.2801 48.3437 60.6886 48.025C60.0972 47.7063 59.4356 47.54 58.7637 47.5411H56.1159C54.9547 47.5388 53.8192 47.8825 52.8541 48.5283C51.889 49.174 51.1381 50.0926 50.6972 51.1668C50.346 52.0114 49.7996 52.7608 49.1028 53.3534C48.3299 54.3587 47.3438 55.18 46.2154 55.7584C45.0869 56.3368 43.8443 56.6578 42.5769 56.6983L34.7282 56.6989C34.3142 56.6989 33.9172 56.5344 33.6244 56.2417C33.3317 55.949 33.1673 55.552 33.1673 55.138C33.1673 54.724 33.3317 54.327 33.6244 54.0342C33.9172 53.7415 34.3142 53.577 34.7282 53.577H42.5351C43.6956 53.5443 44.8113 53.1224 45.7032 52.3792C45.5519 51.0444 44.9131 49.8125 43.9094 48.9197C42.9057 48.0268 41.6077 47.536 40.2644 47.5413H34.5087C33.4405 47.5385 32.3823 47.7471 31.3951 48.1548C30.4078 48.5626 29.5108 49.1616 28.7559 49.9174L28.6091 50.0636C27.5965 51.0766 26.31 51.7714 24.9077 52.0628V67.7184H45.6855C48.8226 67.7204 51.8912 66.8015 54.511 65.0759C57.1308 63.3502 59.1865 60.8936 60.4232 58.0106L62.4906 53.1987C62.7568 52.582 62.8652 51.9087 62.806 51.2397C62.7468 50.5706 62.5219 49.9268 62.1515 49.3664Z" fill="#3498DB"/>
</svg>
